<?xml version="1.0" encoding="utf-8"?>
<!-- Generator: Adobe Illustrator 24.1.0, SVG Export Plug-In . SVG Version: 6.00 Build 0)  -->
<svg version="1.1" id="Layer_1" xmlns="http://www.w3.org/2000/svg" xmlns:xlink="http://www.w3.org/1999/xlink" x="0px" y="0px"
	 viewBox="0 0 21.8 21.8" style="enable-background:new 0 0 21.8 21.8;" xml:space="preserve">
<style type="text/css">
	.st0{fill:#96E8C4;}
</style>
<g id="Layer_2_1_">
	<g id="Layer_1-2">
		<path class="st0" d="M7.7,19.4c-0.1-0.1-0.3-0.2-0.5-0.2H4.9c-1.6,0-2.3-0.7-2.3-2.3v-2.3c0-0.2-0.1-0.4-0.2-0.5l-1.6-1.6
			c-0.9-0.7-1.1-1.9-0.4-2.8c0.1-0.1,0.2-0.3,0.4-0.4l1.6-1.6c0.1-0.1,0.2-0.3,0.2-0.5V4.9c0-1.6,0.7-2.3,2.3-2.3h2.3
			c0.2,0,0.4-0.1,0.5-0.2l1.6-1.6c0.6-0.9,1.8-1.1,2.7-0.5c0.2,0.1,0.4,0.3,0.5,0.5l1.6,1.6c0.1,0.1,0.3,0.2,0.5,0.2h2.3
			c1.6,0,2.3,0.7,2.3,2.3v2.2c0,0.2,0.1,0.4,0.2,0.5L21,9.3c0.9,0.7,1.1,1.9,0.4,2.8c-0.1,0.1-0.2,0.3-0.4,0.4l-1.6,1.6
			c-0.2,0.1-0.2,0.3-0.2,0.5v2.3c0,1.6-0.7,2.3-2.3,2.3h-2.3c-0.2,0-0.4,0.1-0.5,0.2L12.5,21c-0.6,0.9-1.8,1.1-2.7,0.5
			c-0.2-0.1-0.3-0.3-0.5-0.5L7.7,19.4z M11.7,20.1l1.9-1.9c0.2-0.2,0.4-0.3,0.7-0.3H17c0.9,0,1.1-0.2,1.1-1.1v-2.7
			c0-0.3,0.1-0.5,0.3-0.7l1.9-1.9c0.6-0.6,0.6-0.9,0-1.5l-1.9-1.9C18.1,8.1,18,7.8,18,7.6V4.9c0-0.9-0.2-1.1-1.1-1.1h-2.7
			c-0.3,0-0.5-0.1-0.7-0.3l-1.9-1.9C11,1,10.8,1,10.1,1.7L8.3,3.5C8.1,3.7,7.8,3.9,7.6,3.8H4.9C4,3.8,3.8,4,3.8,4.9v2.7
			c0,0.3-0.1,0.5-0.3,0.7l-1.9,1.9C1,10.8,1,11,1.7,11.7l1.9,1.9c0.2,0.2,0.3,0.4,0.3,0.7v2.7C3.8,17.8,4,18,4.9,18h2.7
			c0.3,0,0.5,0.1,0.7,0.3l1.9,1.9C10.8,20.8,11,20.8,11.7,20.1L11.7,20.1z M8.9,15.4l-3.2-3.6c-0.1-0.1-0.2-0.3-0.2-0.4
			c0-0.4,0.3-0.6,0.7-0.6c0.2,0,0.3,0.1,0.4,0.2l2.7,3l5.1-7.2c0.2-0.3,0.6-0.4,0.9-0.2c0.2,0.1,0.3,0.3,0.3,0.5
			c0,0.1-0.1,0.3-0.1,0.4l-5.6,7.9c-0.1,0.2-0.3,0.2-0.5,0.2C9.2,15.5,9,15.5,8.9,15.4L8.9,15.4z"/>
	</g>
</g>
</svg>
