<svg xmlns="http://www.w3.org/2000/svg" viewBox="0 0 19.59 19.59"><defs><style>.cls-1{fill:#1d1d1b;}</style></defs><g id="Layer_2" data-name="Layer 2"><g id="Layer_1-2" data-name="Layer 1"><path class="cls-1" d="M0,9.79A9.84,9.84,0,0,1,9.79,0a9.85,9.85,0,0,1,9.8,9.79,9.85,9.85,0,0,1-9.8,9.8A9.85,9.85,0,0,1,0,9.79Zm18.33,0a8.53,8.53,0,1,0-8.54,8.54A8.52,8.52,0,0,0,18.33,9.79Zm-12,3.85a.48.48,0,0,1,.41-.5,1.91,1.91,0,0,0,1.45-2A4.11,4.11,0,0,0,8,10.1H6.84a.41.41,0,0,1-.44-.43.4.4,0,0,1,.44-.43h.92A5.09,5.09,0,0,1,7.57,8a2.71,2.71,0,0,1,3-2.82,4.47,4.47,0,0,1,1.61.27c.32.14.42.3.42.51a.39.39,0,0,1-.42.42,6.19,6.19,0,0,0-1.56-.28A1.84,1.84,0,0,0,8.57,7.9a4.76,4.76,0,0,0,.22,1.34h2.75a.41.41,0,0,1,.44.43.42.42,0,0,1-.44.43H9a4.32,4.32,0,0,1,.14,1.06,2.68,2.68,0,0,1-.89,2H12.6a.45.45,0,0,1,.48.47.45.45,0,0,1-.48.46H6.74A.44.44,0,0,1,6.28,13.64Z"/></g></g></svg>