<svg xmlns="http://www.w3.org/2000/svg" viewBox="0 0 16.14 20.81"><defs><style>.cls-1{fill:#1d1d1b;}</style></defs><g id="Layer_2" data-name="Layer 2"><g id="Layer_1-2" data-name="Layer 1"><path class="cls-1" d="M0,17.94V2.88A2.55,2.55,0,0,1,2.85,0H7.54A2.48,2.48,0,0,1,9.62.79l5.74,5.8a2.54,2.54,0,0,1,.78,2.18v9.17a2.54,2.54,0,0,1-2.85,2.87H2.85A2.54,2.54,0,0,1,0,17.94Zm13.23,1.67a1.52,1.52,0,0,0,1.71-1.7V8.73H9.13A1.46,1.46,0,0,1,7.48,7.09V1.21H2.92a1.53,1.53,0,0,0-1.71,1.7v15a1.52,1.52,0,0,0,1.7,1.7ZM8.65,14.72,8.6,16.49l1.27-1.28.85-.87a.57.57,0,0,1,.4-.18.52.52,0,0,1,.54.54.61.61,0,0,1-.22.45L8.5,17.93a.55.55,0,0,1-.85,0L4.71,15.15a.62.62,0,0,1-.23-.45A.52.52,0,0,1,5,14.16a.59.59,0,0,1,.41.18l.85.87,1.27,1.28,0-1.77V10.59a.58.58,0,0,1,1.15,0Zm6-7.13L8.62,1.46V7c0,.46.19.64.64.64Z"/></g></g></svg>