<?xml version="1.0" encoding="utf-8"?>
<!-- Generator: Adobe Illustrator 22.0.1, SVG Export Plug-In . SVG Version: 6.00 Build 0)  -->
<svg version="1.1" id="Layer_1" xmlns="http://www.w3.org/2000/svg" xmlns:xlink="http://www.w3.org/1999/xlink" x="0px" y="0px"
	 viewBox="0 0 200 200" style="enable-background:new 0 0 200 200;" xml:space="preserve">
<metadata><?xpacket begin="﻿" id="W5M0MpCehiHzreSzNTczkc9d"?>
<x:xmpmeta xmlns:x="adobe:ns:meta/" x:xmptk="Adobe XMP Core 5.6-c143 79.161210, 2017/08/11-10:28:36        ">
   <rdf:RDF xmlns:rdf="http://www.w3.org/1999/02/22-rdf-syntax-ns#">
      <rdf:Description rdf:about=""/>
   </rdf:RDF>
</x:xmpmeta>
                                                                                                    
                                                                                                    
                                                                                                    
                                                                                                    
                                                                                                    
                                                                                                    
                                                                                                    
                                                                                                    
                                                                                                    
                                                                                                    
                                                                                                    
                                                                                                    
                                                                                                    
                                                                                                    
                                                                                                    
                                                                                                    
                                                                                                    
                                                                                                    
                                                                                                    
                                                                                                    
                           
<?xpacket end="w"?></metadata>
<style type="text/css">
	.st0{fill:#D3D1CF;}
</style>
<path class="st0" d="M30.9,25.7c0,4.5,0,8.8,0,13.1C31,45.5,35.4,50.6,42,51.6c7.3,1.1,14.3-4.8,14.4-12.1c0.1-4.5,0-9,0-13.6
	c10.5,0,20.9,0,31.6,0c0,3.5-0.1,7,0,10.4c0,2,0,4.1,0.5,6.1c1.5,5.9,7.7,10.1,13.5,9.3c6.7-0.9,11.5-6.1,11.6-12.5
	c0-4.4,0-8.8,0-13.4c10.6,0,21,0,31.6,0c0,4.3,0,8.5,0,12.7c0,6.8,4.2,11.9,10.9,13c7.2,1.3,14.4-4.6,14.6-11.9
	c0.1-3.9,0-7.8,0-11.7c0-0.7,0-1.4,0-2.2c7.7-0.7,14.8,0,20.2,6c3.4,3.7,5,8.2,5,13.2c0,33.5,0,66.9,0,100.4c0,8.5,0,16.9,0,25.4
	c0,11.5-8.2,19.7-19.8,19.7c-50.4,0-100.8,0-151.2,0c-11,0-19.3-8.3-19.3-19.3c0-42,0-84,0-126c0-11.3,8.3-19.5,19.5-19.6
	C27,25.7,28.8,25.7,30.9,25.7z M18.3,76.4c0,0.7-0.1,1.2-0.1,1.6c0,29,0,58,0,87.1c0,4,2.7,6.6,6.8,6.6c50.2,0,100.5,0,150.7,0
	c5.3,0,7.6-2.3,7.6-7.6c0-28.5,0-57,0-85.5c0-0.7,0-1.4,0-2.2C128.3,76.4,73.4,76.4,18.3,76.4z"/>
<path class="st0" d="M164.2,28.9c0,3,0,5.9,0,8.9c0,3.9-2.6,6.8-6.2,6.8c-3.6,0-6.3-2.9-6.3-6.8c0-6,0-12,0-18
	c0-3.9,2.7-6.8,6.2-6.8c3.6,0,6.2,2.8,6.3,6.8c0,1.5,0,3,0,4.6C164.2,25.8,164.2,27.3,164.2,28.9z"/>
<path class="st0" d="M94.5,28.8c0-3,0-6.1,0-9.1c0-3.9,2.7-6.7,6.3-6.7c3.5,0,6.2,2.9,6.2,6.6c0,6.1,0,12.2,0,18.2
	c0,3.9-2.8,6.8-6.3,6.7c-3.5-0.1-6.1-2.9-6.2-6.6c0-1.5,0-3,0-4.6C94.5,31.8,94.5,30.3,94.5,28.8z"/>
<path class="st0" d="M49.9,28.9c0,3,0,6.1,0,9.1c-0.1,3.8-2.7,6.6-6.2,6.6c-3.5,0-6.2-2.8-6.3-6.5c0-6.1,0-12.3,0-18.4
	c0-3.8,2.7-6.6,6.2-6.6c3.5,0,6.2,2.7,6.3,6.5c0,1.6,0,3.2,0,4.8C49.9,25.8,49.9,27.3,49.9,28.9z"/>
<path class="st0" d="M119.7,158.8c-2.9,0-5.8,0-8.7,0c-2.6,0-3.8-1.2-3.8-3.7c0-3.8,0-7.7,0-11.5c0-2.4,1.2-3.6,3.7-3.6
	c5.9,0,11.9,0,17.8,0c2.5,0,3.7,1.2,3.7,3.6c0,3.9,0,7.8,0,11.7c0,2.3-1.2,3.5-3.6,3.5C125.8,158.8,122.8,158.8,119.7,158.8z"/>
<path class="st0" d="M81.8,158.8c-3,0-5.9,0-8.9,0c-2.5,0-3.7-1.2-3.7-3.6c0-3.9,0-7.8,0-11.7c0-2.3,1.2-3.5,3.6-3.5c6,0,12,0,18,0
	c2.4,0,3.6,1.2,3.6,3.5c0,3.9,0,7.8,0,11.7c0,2.4-1.2,3.6-3.7,3.6C87.7,158.8,84.7,158.8,81.8,158.8z"/>
<path class="st0" d="M43.6,158.8c-2.9,0-5.8,0-8.7,0c-2.6,0-3.8-1.1-3.8-3.7c0-3.8,0-7.7,0-11.5c0-2.5,1.2-3.7,3.6-3.7
	c5.9,0,11.9,0,17.8,0c2.6,0,3.7,1.2,3.7,3.8c0,3.8,0,7.5,0,11.3c0,2.6-1.1,3.7-3.7,3.8C49.6,158.8,46.6,158.8,43.6,158.8z"/>
<path class="st0" d="M158,114.6c2.9,0,5.8,0,8.7,0c2.6,0,3.8,1.1,3.8,3.7c0,3.8,0,7.7,0,11.5c0,2.4-1.2,3.7-3.7,3.7
	c-5.9,0-11.9,0-17.8,0c-2.6,0-3.7-1.2-3.7-3.8c0-3.8,0-7.5,0-11.3c0-2.6,1.1-3.7,3.7-3.8C152.1,114.5,155,114.6,158,114.6z"/>
<path class="st0" d="M119.7,133.4c-2.9,0-5.8,0-8.7,0c-2.6,0-3.8-1.2-3.8-3.7c0-3.8,0-7.7,0-11.5c0-2.4,1.2-3.6,3.7-3.6
	c5.9,0,11.9,0,17.8,0c2.5,0,3.7,1.2,3.7,3.6c0,3.8,0,7.7,0,11.5c0,2.6-1.2,3.7-3.8,3.7C125.7,133.5,122.7,133.4,119.7,133.4z"/>
<path class="st0" d="M81.8,133.4c-2.9,0-5.8,0-8.7,0c-2.7,0-3.9-1.1-3.9-3.8c0-3.8,0-7.7,0-11.5c0-2.4,1.2-3.6,3.5-3.6
	c6.1,0,12.2,0,18.2,0c2.2,0,3.4,1.2,3.4,3.5c0,4,0,7.9,0,11.9c0,2.3-1.3,3.5-3.6,3.5C87.7,133.5,84.8,133.4,81.8,133.4z"/>
<path class="st0" d="M43.6,133.4c-2.9,0-5.8,0-8.7,0c-2.6,0-3.8-1.1-3.8-3.7c0-3.8,0-7.7,0-11.5c0-2.5,1.2-3.7,3.6-3.7
	c5.9,0,11.9,0,17.8,0c2.6,0,3.7,1.2,3.7,3.8c0,3.8,0,7.5,0,11.3c0,2.6-1.2,3.7-3.8,3.8C49.5,133.4,46.6,133.4,43.6,133.4z"/>
<path class="st0" d="M158,108c-3,0-5.9,0-8.9,0c-2.6,0-3.7-1.2-3.7-3.8c0-3.8,0-7.7,0-11.5c0-2.3,1.2-3.6,3.5-3.6c6,0,12,0,18,0
	c2.5,0,3.6,1.2,3.6,3.7c0,3.8,0,7.7,0,11.5c0,2.6-1.2,3.7-3.8,3.7C163.8,108.1,160.9,108,158,108z"/>
<path class="st0" d="M119.7,108c-2.9,0-5.8,0-8.7,0c-2.6,0-3.8-1.2-3.8-3.7c0-3.8,0-7.7,0-11.5c0-2.5,1.2-3.6,3.7-3.6
	c5.9,0,11.9,0,17.8,0c2.5,0,3.7,1.2,3.7,3.6c0,3.9,0,7.8,0,11.7c0,2.3-1.3,3.5-3.6,3.5C125.8,108.1,122.8,108,119.7,108
	C119.7,108,119.7,108,119.7,108z"/>
<path class="st0" d="M81.7,108c-3,0-5.9,0-8.9,0c-2.5,0-3.6-1.2-3.7-3.7c0-3.8,0-7.7,0-11.5c0-2.5,1.2-3.7,3.6-3.7c6,0,12,0,18,0
	c2.3,0,3.5,1.2,3.6,3.6c0,3.9,0,7.8,0,11.7c0,2.4-1.2,3.6-3.7,3.6C87.7,108.1,84.7,108,81.7,108z"/>
</svg>
