<?xml version="1.0" encoding="utf-8"?>
<!-- Generator: Adobe Illustrator 22.0.1, SVG Export Plug-In . SVG Version: 6.00 Build 0)  -->
<svg version="1.1" id="Layer_1" xmlns="http://www.w3.org/2000/svg" xmlns:xlink="http://www.w3.org/1999/xlink" x="0px" y="0px"
	 viewBox="0 0 200 200" style="enable-background:new 0 0 200 200;" xml:space="preserve">
<metadata><?xpacket begin="﻿" id="W5M0MpCehiHzreSzNTczkc9d"?>
<x:xmpmeta xmlns:x="adobe:ns:meta/" x:xmptk="Adobe XMP Core 5.6-c143 79.161210, 2017/08/11-10:28:36        ">
   <rdf:RDF xmlns:rdf="http://www.w3.org/1999/02/22-rdf-syntax-ns#">
      <rdf:Description rdf:about=""/>
   </rdf:RDF>
</x:xmpmeta>
                                                                                                    
                                                                                                    
                                                                                                    
                                                                                                    
                                                                                                    
                                                                                                    
                                                                                                    
                                                                                                    
                                                                                                    
                                                                                                    
                                                                                                    
                                                                                                    
                                                                                                    
                                                                                                    
                                                                                                    
                                                                                                    
                                                                                                    
                                                                                                    
                                                                                                    
                                                                                                    
                           
<?xpacket end="w"?></metadata>
<style type="text/css">
	.st0{fill:#D3D1CF;}
</style>
<g>
	<path class="st0" d="M4.9,79.2c0-3.6,1.4-6.5,3.8-9c9.9-10.4,20.6-19.9,33.2-26.9C62.1,32,83.8,26.9,106.9,27.9
		c14,0.6,27.5,3.6,40.4,8.9c9.8,4,18.9,9.3,27.4,15.8c6,4.6,11.5,9.7,16.7,15.2c4.9,5.1,4.8,12.6,0,17.7c-4.7,4.9-12.4,5.2-17.5,0.6
		c-4.5-4-8.7-8.5-13.4-12.3c-9-7.3-19.1-12.6-30.1-16.1c-15.4-4.9-30.9-5.7-46.7-2.9c-12.4,2.2-23.8,7-34.3,13.7
		c-7.8,5-14.5,11.3-20.8,17.9c-2.5,2.6-5.1,4.8-8.9,5.4C11.8,92.8,4.9,86.9,4.9,79.2z"/>
	<path class="st0" d="M105.5,73.8c5-0.1,13.6,1.5,21.8,4.6c8.2,3,15.7,7.4,22.2,13.2c3.6,3.2,7.1,6.6,10.2,10.2
		c4.4,5,4.1,12-0.2,17.4c-3.7,4.7-10.7,6.4-16.3,3.5c-2.5-1.3-4.7-3.4-6.8-5.4c-5.9-5.9-12.3-10.9-20.5-13.4
		c-16.5-4.9-31.3-1.7-44.2,9.7c-3.3,2.9-6.3,6.2-9.6,9.2c-5.6,5.1-13.9,4.7-19.2-0.6c-5.1-5-5.4-13.4-0.3-19
		c7.2-7.9,14.9-15.4,24.5-20.5C78.2,76.9,89.4,74,105.5,73.8z"/>
	<path class="st0" d="M122.5,149.5c-0.5,13-11.7,21.8-23.1,21.2c-13.2-0.7-21.7-12-21-23.3c0.9-13.3,11.8-21.3,22.7-20.9
		C114.6,127,123,138.2,122.5,149.5z"/>
</g>
</svg>
