<svg xmlns="http://www.w3.org/2000/svg" viewBox="0 0 762.92 373.77"><defs><style>.cls-1{fill:#fff;}</style></defs><g id="Layer_2" data-name="Layer 2"><g id="Layer_1-2" data-name="Layer 1"><path class="cls-1" d="M738.58,311.06a12.61,12.61,0,0,1,7,1.88,12,12,0,0,1,4.54,5.56,23.39,23.39,0,0,1,1.63,9.25l-30.49.65c1-5.51,2.94-9.77,5.89-12.76a15.43,15.43,0,0,1,11.45-4.58m23.1,51.2c-1.52,1-3.07,1.87-4.62,2.65a24.53,24.53,0,0,1-5.08,1.92,25.31,25.31,0,0,1-6.35.73,24.6,24.6,0,0,1-10.75-2.33,21.93,21.93,0,0,1-7.83-6.53,29.48,29.48,0,0,1-4.82-9.9,45.38,45.38,0,0,1-1.63-12.54c0-1,0-2.06.11-3s.13-1.87.21-2.76l39.8-.16a1.38,1.38,0,0,0,1.42-1,9.59,9.59,0,0,0,.35-3.16,21.38,21.38,0,0,0-2.12-9.82,14.4,14.4,0,0,0-6.26-6.26,21.9,21.9,0,0,0-10.24-2.22,33.68,33.68,0,0,0-31.21,20.92A35.29,35.29,0,0,0,710,342.36a35.82,35.82,0,0,0,1.87,11.45,30.25,30.25,0,0,0,5.59,9.84,26.5,26.5,0,0,0,9.2,6.93,30.4,30.4,0,0,0,12.71,2.59,32.18,32.18,0,0,0,12-2.19,38.53,38.53,0,0,0,11.48-7.12.8.8,0,0,0,0-.77,1.81,1.81,0,0,0-.54-.7.59.59,0,0,0-.62-.13"/><path class="cls-1" d="M700.7,369.32a16.9,16.9,0,0,1-6.29-.83,5,5,0,0,1-2.94-3.32,23.22,23.22,0,0,1-.72-6.92V326.79c0-6.44-1.66-11.31-4.84-14.6s-7.81-5-13.78-5a24.82,24.82,0,0,0-12.38,3.35A46.37,46.37,0,0,0,647.58,321a28.52,28.52,0,0,0-.86-7.19,14.21,14.21,0,0,0-1.87-4.44c-.72-1-1.37-1.53-1.93-1.53a1.65,1.65,0,0,0-.34,0,1.85,1.85,0,0,0-.62.14l-18.62,8.82a.74.74,0,0,0-.42.75,1.1,1.1,0,0,0,.37.8.85.85,0,0,0,.86.22c1.84-.73,3.5-1.31,4.94-1.74a13.53,13.53,0,0,1,3.72-.67,4.45,4.45,0,0,1,4.39,2.49c.86,1.66,1.26,4.25,1.23,7.78v31.78a23.22,23.22,0,0,1-.72,6.92,5,5,0,0,1-3,3.32,16.78,16.78,0,0,1-6.28.83c-.21,0-.35.19-.43.51a1.76,1.76,0,0,0,0,.91c.08.32.22.48.43.51q2.81,0,6.58-.16c2.51-.08,5.19-.14,8-.16s5.38.08,7.89.16,4.69.13,6.56.16c.21,0,.34-.19.43-.51a2,2,0,0,0,0-.91c-.09-.32-.22-.48-.43-.51a16.87,16.87,0,0,1-6.29-.83,5,5,0,0,1-2.94-3.32,23.22,23.22,0,0,1-.72-6.92V323.74a33,33,0,0,1,9.28-7.33,21.86,21.86,0,0,1,10-2.62c5,0,8.78,1.47,11.19,4.47s3.61,7.68,3.58,14v26a23.22,23.22,0,0,1-.72,6.92,5,5,0,0,1-2.94,3.32,16.87,16.87,0,0,1-6.29.83c-.21,0-.35.19-.43.51a1.76,1.76,0,0,0,0,.91c.08.32.22.48.43.51,1.87,0,4.07-.08,6.58-.16s5.19-.14,8-.16,5.38.08,7.9.16,4.68.13,6.55.16c.21,0,.35-.19.43-.51a1.76,1.76,0,0,0,0-.91c-.08-.32-.22-.48-.43-.51"/><path class="cls-1" d="M596.61,367.13a19.71,19.71,0,0,1-10.57,1,25.49,25.49,0,0,1-10.16-4.33A38,38,0,0,1,567,355a51.49,51.49,0,0,1-6.69-12.33c-2.77-7.38-3.45-13.57-2-18.55s4.88-8.48,10.24-10.56a21.56,21.56,0,0,1,10.53-1.31,24.62,24.62,0,0,1,10.06,3.77,35.32,35.32,0,0,1,8.85,8.3,49.84,49.84,0,0,1,6.73,12.34q3.16,8.37,3.1,14.46a17,17,0,0,1-3,10,17.47,17.47,0,0,1-8.21,5.95m-3.25,4.51a37.47,37.47,0,0,0,11.34-6.8,33.4,33.4,0,0,0,7.79-10,30.92,30.92,0,0,0,3.18-12.35,34,34,0,0,0-2.35-13.85A36.2,36.2,0,0,0,607,318a32.88,32.88,0,0,0-9.48-7.71,29.7,29.7,0,0,0-11.81-3.48,31.28,31.28,0,0,0-13.27,2.08,38.11,38.11,0,0,0-8.45,4.55,36.6,36.6,0,0,0-7.28,6.8,32,32,0,0,0-5.1,8.76,28.93,28.93,0,0,0-1.88,10.43A33.44,33.44,0,0,0,552,351.2a39,39,0,0,0,6.68,11.31,33.78,33.78,0,0,0,9.72,7.82,29.4,29.4,0,0,0,11.86,3.37,30.66,30.66,0,0,0,13.08-2.06"/><path class="cls-1" d="M539.73,363.06a20.17,20.17,0,0,1-3.37,2.17,21.18,21.18,0,0,1-4.28,1.66,20.18,20.18,0,0,1-5.19.67c-4,0-7.17-1.05-9.36-3.19s-3.29-5.4-3.32-9.82v-40q5.63.09,10.89.62a74.72,74.72,0,0,1,10.78,2c.27,0,.53-.16.8-.56a6.56,6.56,0,0,0,.7-1.55,6.93,6.93,0,0,0,.26-1.74,9.3,9.3,0,0,0-.37-2.7c-.24-.75-.48-1.12-.75-1.15-4,.4-7.78.75-11.4,1s-7.24.48-10.91.56V299.19c0-.22-.24-.35-.61-.43a2.93,2.93,0,0,0-1.18,0c-.38.08-.59.21-.61.43a13.37,13.37,0,0,1-2.36,6.34,13,13,0,0,1-5.13,4.22,19,19,0,0,1-7.6,1.63.63.63,0,0,0-.54.54,2.2,2.2,0,0,0,0,1,.62.62,0,0,0,.54.53A16.68,16.68,0,0,1,502,314a3.49,3.49,0,0,1,2.35,2.51,20.83,20.83,0,0,1,.51,5.78V360a13.39,13.39,0,0,0,2.25,7.92,11.82,11.82,0,0,0,5.67,4.07,22.11,22.11,0,0,0,7.49,1.17,25.27,25.27,0,0,0,6.63-.85,28.88,28.88,0,0,0,6.64-2.73,58,58,0,0,0,7.27-4.92.78.78,0,0,0,.24-.81,1.21,1.21,0,0,0-.53-.74.78.78,0,0,0-.83-.06"/><path class="cls-1" d="M452.1,319.09c0-3,.83-5.17,2.41-6.56a8.81,8.81,0,0,1,6.26-2.11,17.77,17.77,0,0,1,5.8,1,21.53,21.53,0,0,1,5.38,2.75,15.08,15.08,0,0,1,4,4.1,9,9,0,0,1,1.55,5c0,.16.19.27.51.32a2.78,2.78,0,0,0,.91,0c.32-.05.48-.16.51-.32,0-2.25.05-4.33.16-6.29s.13-3.74.16-5.42a1.69,1.69,0,0,0-.24-1,2.64,2.64,0,0,0-1.21-.75,25.11,25.11,0,0,0-5.8-1.87,30.58,30.58,0,0,0-5.91-.54,30.12,30.12,0,0,0-7.95,1.05,21.81,21.81,0,0,0-7,3.23,16,16,0,0,0-5,5.54,17.9,17.9,0,0,0-.54,14.87,15.08,15.08,0,0,0,3.59,4.95,26.93,26.93,0,0,0,5.08,3.64c1.87,1,3.82,2.06,5.86,3a64.65,64.65,0,0,1,6.95,3.75,18.06,18.06,0,0,1,5.41,5,13.52,13.52,0,0,1,2.24,7.49c.22,3.37-.61,5.91-2.43,7.6s-4.52,2.51-8,2.51a17,17,0,0,1-11.31-4.14c-3.27-2.76-5.91-6.85-8-12.23a.59.59,0,0,0-.56-.37,2.14,2.14,0,0,0-.91,0c-.27.11-.43.27-.45.48l.32,12.52a2.49,2.49,0,0,0,.29,1.21,2.23,2.23,0,0,0,.67.72,26.57,26.57,0,0,0,7.7,3.8,27.86,27.86,0,0,0,7.71,1,29.1,29.1,0,0,0,9.71-1.58,20.56,20.56,0,0,0,7.09-4.28,18.27,18.27,0,0,0,4.36-6.2,19,19,0,0,0,1.47-7.36,15.66,15.66,0,0,0-1.42-6.71,16.33,16.33,0,0,0-3.75-4.95,30,30,0,0,0-5.27-3.74q-2.88-1.69-5.93-3.21c-1.82-.91-3.59-1.88-5.3-2.87a28.85,28.85,0,0,1-4.63-3.34,14.57,14.57,0,0,1-3.29-4.2,12.42,12.42,0,0,1-1.23-5.48"/><path class="cls-1" d="M421.61,307.85A10.35,10.35,0,0,0,417,309a25.87,25.87,0,0,0-5.56,4.09,99.66,99.66,0,0,0-7.62,8.1V321a28.52,28.52,0,0,0-.86-7.19,14.46,14.46,0,0,0-1.87-4.44c-.72-1-1.37-1.53-1.93-1.53a1.73,1.73,0,0,0-.35,0,2.09,2.09,0,0,0-.61.13l-18.62,8.83a.76.76,0,0,0-.43.75,1.15,1.15,0,0,0,.38.8.85.85,0,0,0,.86.22c1.84-.72,3.5-1.32,4.94-1.74a13.53,13.53,0,0,1,3.72-.67,4.45,4.45,0,0,1,4.39,2.49c.85,1.65,1.26,4.25,1.23,7.78v31.78a23.55,23.55,0,0,1-.72,6.92,5,5,0,0,1-2.95,3.32,16.81,16.81,0,0,1-6.28.83c-.22,0-.35.19-.43.51a1.76,1.76,0,0,0,0,.91c.08.32.21.48.43.51q2.81,0,6.58-.16c2.51-.08,5.19-.14,8-.17,3.83,0,7.46.09,10.94.17s6.5.13,9.12.16a.6.6,0,0,0,.54-.51,1.76,1.76,0,0,0,0-.91.6.6,0,0,0-.54-.51,50.66,50.66,0,0,1-8-.45,10.91,10.91,0,0,1-4.74-1.66,6.09,6.09,0,0,1-2.25-3.37,19.67,19.67,0,0,1-.58-5.59V323.9a81.26,81.26,0,0,1,5.61-6,13.94,13.94,0,0,1,3.48-2.68,6,6,0,0,1,2.62-.59,7.17,7.17,0,0,1,3.29.75,11.74,11.74,0,0,1,2.38,1.66,17.6,17.6,0,0,0,2.25,1.66,5.64,5.64,0,0,0,2.83.75,5.33,5.33,0,0,0,4-1.47,5,5,0,0,0,1.34-3.51,4.79,4.79,0,0,0-1.58-3.34,10.84,10.84,0,0,0-3.79-2.35,13.11,13.11,0,0,0-4.58-.89"/><path class="cls-1" d="M346.34,311.06a12.58,12.58,0,0,1,7,1.88,12,12,0,0,1,4.55,5.56,23.39,23.39,0,0,1,1.63,9.25L329,328.4q1.49-8.26,5.88-12.76a15.45,15.45,0,0,1,11.45-4.58m23.11,51.2c-1.52,1-3.08,1.87-4.63,2.65a24.31,24.31,0,0,1-5.08,1.92,25.23,25.23,0,0,1-6.34.73,24.57,24.57,0,0,1-10.75-2.33,22.05,22.05,0,0,1-7.84-6.53,29.28,29.28,0,0,1-4.81-9.9,45,45,0,0,1-1.63-12.54c0-1,0-2.06.1-3s.14-1.87.22-2.76l39.8-.16a1.38,1.38,0,0,0,1.42-1,9.38,9.38,0,0,0,.34-3.16,21.38,21.38,0,0,0-2.11-9.82,14.45,14.45,0,0,0-6.26-6.26,21.93,21.93,0,0,0-10.24-2.22,33.72,33.72,0,0,0-31.22,20.92,36,36,0,0,0-.77,25,30.07,30.07,0,0,0,5.59,9.84,26.41,26.41,0,0,0,9.2,6.93,30.39,30.39,0,0,0,12.7,2.59,32.19,32.19,0,0,0,12-2.19,38.65,38.65,0,0,0,11.48-7.12.77.77,0,0,0,0-.77,1.7,1.7,0,0,0-.53-.7.59.59,0,0,0-.62-.13"/><path class="cls-1" d="M308.47,369.32a17.23,17.23,0,0,1-6.34-.83,5.11,5.11,0,0,1-3-3.32,21.66,21.66,0,0,1-.78-6.92V327.11c0-6.42-1.65-11.26-4.84-14.52s-7.73-4.9-13.61-4.9A25.79,25.79,0,0,0,267.35,311a45.86,45.86,0,0,0-12.17,10.37V256.17a1.17,1.17,0,0,0-.43-.88,1.36,1.36,0,0,0-1-.4h-.48l-20.38,9.95a.67.67,0,0,0-.41.7,1.56,1.56,0,0,0,.43.88.62.62,0,0,0,.78.19A38,38,0,0,1,237.9,265a10.43,10.43,0,0,1,3.16-.59,4,4,0,0,1,4,2.62c.78,1.77,1.15,4.55,1.13,8.29v83a21.66,21.66,0,0,1-.78,6.92,5.06,5.06,0,0,1-3,3.32,17.21,17.21,0,0,1-6.33.83c-.22,0-.35.19-.43.51a1.76,1.76,0,0,0,0,.91c.08.32.21.48.43.51,1.95,0,4.14-.08,6.63-.16s5.14-.14,8-.16,5.48.08,8,.16,4.68.13,6.63.16c.22,0,.35-.19.43-.51a1.76,1.76,0,0,0,0-.91c-.08-.32-.21-.48-.43-.51a17.21,17.21,0,0,1-6.33-.83,5.06,5.06,0,0,1-3-3.32,21.66,21.66,0,0,1-.78-6.92V324.06a33,33,0,0,1,9.29-7.33,22.56,22.56,0,0,1,10.13-2.62c5,0,8.67,1.5,11.13,4.55s3.64,7.76,3.64,14.07v25.52a21.66,21.66,0,0,1-.78,6.92,5.08,5.08,0,0,1-3,3.32,17.3,17.3,0,0,1-6.34.83c-.22,0-.35.19-.43.51a1.76,1.76,0,0,0,0,.91c.08.32.21.48.43.51,1.95,0,4.17-.08,6.63-.16s5.16-.14,8-.16,5.48.08,8,.16,4.68.13,6.64.16c.21,0,.34-.19.42-.51a1.76,1.76,0,0,0,0-.91c-.08-.32-.21-.48-.42-.51"/><path class="cls-1" d="M227.26,363.06a20.17,20.17,0,0,1-3.37,2.17,21.42,21.42,0,0,1-4.28,1.66,20.18,20.18,0,0,1-5.19.67c-4,0-7.17-1.05-9.36-3.19s-3.29-5.4-3.32-9.82v-40q5.63.09,10.89.62a74.72,74.72,0,0,1,10.78,2c.27,0,.53-.16.8-.56a6.56,6.56,0,0,0,.7-1.55,6.93,6.93,0,0,0,.26-1.74,9.66,9.66,0,0,0-.37-2.7c-.24-.75-.48-1.12-.75-1.15-4,.4-7.78.75-11.4,1s-7.24.48-10.91.56V299.19c0-.22-.24-.35-.61-.43a2.93,2.93,0,0,0-1.18,0c-.38.08-.59.21-.62.43a13.25,13.25,0,0,1-2.35,6.34,13,13,0,0,1-5.13,4.22,19,19,0,0,1-7.6,1.63.63.63,0,0,0-.54.54,2.2,2.2,0,0,0,0,1,.62.62,0,0,0,.54.53,16.72,16.72,0,0,1,5.32.54,3.49,3.49,0,0,1,2.35,2.51,20.83,20.83,0,0,1,.51,5.78V360c.06,3.35.8,6,2.25,7.92a11.82,11.82,0,0,0,5.67,4.07,22.07,22.07,0,0,0,7.49,1.17,25.27,25.27,0,0,0,6.63-.85,28.88,28.88,0,0,0,6.64-2.73,58,58,0,0,0,7.27-4.92.79.79,0,0,0,.24-.81,1.21,1.21,0,0,0-.53-.74.78.78,0,0,0-.83-.06"/><path class="cls-1" d="M146.85,363.87a22,22,0,0,1-4.27,2,9.85,9.85,0,0,1-3.43.56,9.29,9.29,0,0,1-4.81-1.26,8.19,8.19,0,0,1-3.11-3.31,10,10,0,0,1-1.07-4.58,8,8,0,0,1,2-5.48,16.93,16.93,0,0,1,6.47-4.15l14.92-5.77v18Zm29.85-1.29a30.5,30.5,0,0,1-4.46,1.58,13.35,13.35,0,0,1-3.4.51,5.07,5.07,0,0,1-4.81-2.6c-1-1.76-1.47-4.46-1.45-8.16v-30q0-7.74-3.34-11.95t-10-4.26a29.65,29.65,0,0,0-7.17,1,50,50,0,0,0-7.75,2.59,44.53,44.53,0,0,0-7.09,3.8,22.36,22.36,0,0,0-5.19,4.52,7.74,7.74,0,0,0-2,4.81,5.19,5.19,0,0,0,.56,2.33,4.42,4.42,0,0,0,1.72,1.77,6.38,6.38,0,0,0,3,.72,5.69,5.69,0,0,0,3.48-1,5.52,5.52,0,0,0,1.81-2.49,12.18,12.18,0,0,0,.81-3.05,25.09,25.09,0,0,1,1.12-3.83,15.4,15.4,0,0,1,2.19-3.85,10.35,10.35,0,0,1,3.54-3,11,11,0,0,1,5.18-1.21,8.35,8.35,0,0,1,5.33,1.69,11.26,11.26,0,0,1,3.53,5.69,36.51,36.51,0,0,1,1.25,10.6v10.91l-17.65,6.58c-5.8,2.11-10,4.39-12.65,6.77a10.72,10.72,0,0,0-3.88,8.32,11.25,11.25,0,0,0,1.42,5.59,10.25,10.25,0,0,0,4.22,4,14.82,14.82,0,0,0,6.88,1.52,18.18,18.18,0,0,0,4.41-.51,20.73,20.73,0,0,0,4.33-1.55,44.28,44.28,0,0,0,4.74-2.75l8.35-5.46a19.24,19.24,0,0,0,2.16,7.73c1.1,1.79,2.3,2.67,3.61,2.7a2.22,2.22,0,0,0,.78-.11,2.6,2.6,0,0,0,.51-.21l16.53-7.86a.84.84,0,0,0,.48-.75,1.13,1.13,0,0,0-.32-.81.75.75,0,0,0-.81-.21"/><path class="cls-1" d="M79.29,311.06a12.58,12.58,0,0,1,7,1.88,12,12,0,0,1,4.55,5.56,23.39,23.39,0,0,1,1.63,9.25L62,328.4q1.49-8.26,5.88-12.76a15.45,15.45,0,0,1,11.45-4.58m23.11,51.2c-1.53,1-3.08,1.87-4.63,2.65a24.31,24.31,0,0,1-5.08,1.92,25.28,25.28,0,0,1-6.34.73,24.54,24.54,0,0,1-10.75-2.33,21.88,21.88,0,0,1-7.84-6.53A29.28,29.28,0,0,1,63,348.8a45,45,0,0,1-1.63-12.54c0-1,0-2.06.1-3s.13-1.87.22-2.76l39.8-.16a1.37,1.37,0,0,0,1.41-1,9.32,9.32,0,0,0,.35-3.16,21.38,21.38,0,0,0-2.11-9.82,14.5,14.5,0,0,0-6.26-6.26,22,22,0,0,0-10.24-2.22,33.91,33.91,0,0,0-13.22,2.65,33.55,33.55,0,0,0-10.75,7.33,33.93,33.93,0,0,0-7.25,10.94,36.09,36.09,0,0,0-.78,25,30.25,30.25,0,0,0,5.59,9.84,26.59,26.59,0,0,0,9.2,6.93,30.43,30.43,0,0,0,12.71,2.59,32.23,32.23,0,0,0,12-2.19,38.49,38.49,0,0,0,11.47-7.12.77.77,0,0,0,0-.77,1.81,1.81,0,0,0-.54-.7.57.57,0,0,0-.61-.13"/><path class="cls-1" d="M47.19,254.73a36.39,36.39,0,0,0-14.71,2.73,26.72,26.72,0,0,0-10.83,8.69,43.55,43.55,0,0,0-6.88,15.33,103.61,103.61,0,0,0-2.89,22.68,7.91,7.91,0,0,1-1.07,4.31,5.8,5.8,0,0,1-3.47,2.25,27.44,27.44,0,0,1-6.85.66c-.22,0-.35.22-.43.54a2.2,2.2,0,0,0,0,1c.08.32.21.5.43.53a49,49,0,0,1,6.18.24,7.51,7.51,0,0,1,3.53,1.15,4.34,4.34,0,0,1,1.63,2.6,20.1,20.1,0,0,1,.37,4.68v36.11a21,21,0,0,1-.82,7,5.17,5.17,0,0,1-3.32,3.27,21.39,21.39,0,0,1-6.93.8c-.21,0-.35.19-.43.51a1.76,1.76,0,0,0,0,.91c.08.32.22.48.43.51,2.11,0,4.47-.08,7.12-.16s5.37-.14,8.29-.16c3.5,0,6.93.07,10.27.16s6.77.13,10.27.16c.21,0,.35-.19.43-.51a1.76,1.76,0,0,0,0-.91c-.08-.32-.22-.48-.43-.51a57.09,57.09,0,0,1-8.29-.43,10.86,10.86,0,0,1-4.76-1.6,5.9,5.9,0,0,1-2.17-3.37,23.18,23.18,0,0,1-.51-5.67V314.59c3.43.06,6.74.3,10,.67a82.84,82.84,0,0,1,10.08,1.9c.27,0,.54-.16.78-.56a6.61,6.61,0,0,0,.59-1.55,6.86,6.86,0,0,0,.24-1.74,9.84,9.84,0,0,0-.32-2.7c-.22-.75-.48-1.12-.8-1.15-3.67.4-7.17.75-10.52,1s-6.68.48-10,.56V300.79q0-15.12,2.6-24.71T31.06,262a14.29,14.29,0,0,1,10.51-4.49,13.56,13.56,0,0,1,7.12,1.74,16.4,16.4,0,0,1,5.08,5,12.91,12.91,0,0,0,3,3.16,5.74,5.74,0,0,0,3.45,1,6.06,6.06,0,0,0,2.73-.59A5,5,0,0,0,65,266.07a5.27,5.27,0,0,0,.81-2.83A5.7,5.7,0,0,0,63.48,259a16.67,16.67,0,0,0-6.47-3,37.79,37.79,0,0,0-9.82-1.18"/><path class="cls-1" d="M324.26,266.09l12.82-42.5,53.71-142.3-8,17.14c-8,17.12-49.32,121.41-49.33,121.45-6.75-8-19.63-29.34-9-67.53l13.78,36L328.55,140l0-.14c17.74-50.43,38.63-73.37,38.63-73.37l8.44,18.11.2-32.95s26.16-33.81,35.68-42.14S422.59,0,422.59,0,427,64.1,411.52,122.74l-12.25,46.52-31.66,25.4L397,180.44s-18.5,34.2-36.25,39.24l-17.75,5Z"/></g></g></svg>