<?xml version="1.0" encoding="utf-8"?>
<!-- Generator: Adobe Illustrator 22.0.1, SVG Export Plug-In . SVG Version: 6.00 Build 0)  -->
<svg version="1.1" id="Layer_1" xmlns="http://www.w3.org/2000/svg" xmlns:xlink="http://www.w3.org/1999/xlink" x="0px" y="0px"
	 viewBox="0 0 200 200" style="enable-background:new 0 0 200 200;" xml:space="preserve">
<metadata><?xpacket begin="﻿" id="W5M0MpCehiHzreSzNTczkc9d"?>
<x:xmpmeta xmlns:x="adobe:ns:meta/" x:xmptk="Adobe XMP Core 5.6-c143 79.161210, 2017/08/11-10:28:36        ">
   <rdf:RDF xmlns:rdf="http://www.w3.org/1999/02/22-rdf-syntax-ns#">
      <rdf:Description rdf:about=""/>
   </rdf:RDF>
</x:xmpmeta>
                                                                                                    
                                                                                                    
                                                                                                    
                                                                                                    
                                                                                                    
                                                                                                    
                                                                                                    
                                                                                                    
                                                                                                    
                                                                                                    
                                                                                                    
                                                                                                    
                                                                                                    
                                                                                                    
                                                                                                    
                                                                                                    
                                                                                                    
                                                                                                    
                                                                                                    
                                                                                                    
                           
<?xpacket end="w"?></metadata>
<style type="text/css">
	.st0{fill:#D3D1CF;}
</style>
<path class="st0" d="M6,104.1c1.5-1.6,3-3.3,4.6-4.7c11.9-10,23.8-19.9,35.7-29.8c9.1-7.6,18.3-15.1,27.4-22.7
	c6.1-5,12.1-10.1,18.2-15.1c5.4-4.4,12.9-4.4,18.3,0.1c9.2,7.6,18.4,15.3,27.6,23c0.2,0.2,0.4,0.3,0.8,0.6c0.1-0.7,0.1-1.2,0.1-1.8
	c0-6.6,0-13.2,0-19.9c0-3.8,1.2-4.9,4.9-4.9c6.8,0,13.7,0,20.5,0c3.5,0,4.7,1.2,4.7,4.8c0,15.1,0,30.2,0,45.4c0,1.2,0.4,2.1,1.3,2.8
	c7.8,6.4,15.6,12.9,23.3,19.3c1,0.8,1.7,2,2.5,2.9c0,0.7,0,1.4,0,2.1c-2.5,3-4.9,6.1-7.4,9.1c-2.2,2.6-4.1,2.8-6.7,0.6
	c-7.1-5.9-14.1-11.8-21.2-17.7c-6.2-5.2-12.4-10.3-18.6-15.5c-6.4-5.3-12.8-10.7-19.2-16c-6.9-5.8-13.8-11.5-20.7-17.3
	c-0.8-0.7-1.4-0.7-2.2,0C93.6,54.8,87.3,60.1,81,65.3C74.7,70.6,68.4,75.8,62.1,81c-6.3,5.3-12.7,10.5-19,15.8
	c-7.1,5.9-14.1,11.8-21.2,17.7c-0.8,0.7-1.6,1.4-2.5,2c-2,1.4-3.8,1.3-5.4-0.5c-2.8-3.2-5.4-6.5-8.1-9.8C6,105.5,6,104.8,6,104.1z"
	/>
<path class="st0" d="M116.1,179.6c0-15.1,0-30.1,0-45.1c-0.6,0-1.1-0.1-1.6-0.1c-9,0-18,0-27,0c-1.4,0-1.7,0.4-1.7,1.7
	c0,13.8,0,27.6,0,41.4c0,0.6,0,1.3,0,2.1c-0.7,0-1.3,0-1.8,0c-14.2,0-28.3,0-42.5,0c-5.4,0-8.4-3-8.4-8.5c0-18.1,0-36.2,0-54.3
	c0-1.4,0.5-2.3,1.6-3.2c10.4-8.5,20.7-17,31-25.5c9.3-7.7,18.6-15.3,28-23c2.4-2,4.8-4,7.3-6.1c2.2,1.8,4.4,3.5,6.6,5.3
	c5.4,4.4,10.8,8.9,16.1,13.3c6.9,5.7,13.8,11.4,20.7,17.1c5.8,4.8,11.7,9.6,17.6,14.4c2.1,1.7,4.2,3.3,6.2,5.1
	c0.5,0.5,0.8,1.5,0.8,2.3c0.1,9.9,0,19.7,0,29.6c0,8.3,0,16.6,0,24.9c0,5.6-3,8.5-8.5,8.5c-14.2,0-28.3,0-42.5,0
	C117.4,179.6,116.9,179.6,116.1,179.6z"/>
</svg>
